<?xml version="1.0" standalone="no"?><!DOCTYPE svg PUBLIC "-//W3C//DTD SVG 1.1//EN" "http://www.w3.org/Graphics/SVG/1.1/DTD/svg11.dtd"><svg class="icon" width="48px" height="48.00px" viewBox="0 0 1024 1024" version="1.1" xmlns="http://www.w3.org/2000/svg"><path d="M352 85.333333H202.666667c-64.666667 0-117.333333 52.666667-117.333334 117.333334v149.333333c0 64.666667 52.633333 117.333333 117.333334 117.333333h213.333333a53.393333 53.393333 0 0 0 53.333333-53.333333V202.666667c0-64.666667-52.633333-117.333333-117.333333-117.333334z m74.666667 330.666667a10.666667 10.666667 0 0 1-10.666667 10.666667H202.666667a74.746667 74.746667 0 0 1-74.666667-74.666667V202.666667a74.746667 74.746667 0 0 1 74.666667-74.666667h149.333333a74.746667 74.746667 0 0 1 74.666667 74.666667z m-10.666667 138.666667H202.666667c-64.7 0-117.333333 52.666667-117.333334 117.333333v149.333333c0 64.666667 52.633333 117.333333 117.333334 117.333334h149.333333c64.666667 0 117.333333-52.666667 117.333333-117.333334V608a53.393333 53.393333 0 0 0-53.333333-53.333333z m10.666667 266.666666a74.746667 74.746667 0 0 1-74.666667 74.666667H202.666667a74.746667 74.746667 0 0 1-74.666667-74.666667v-149.333333a74.746667 74.746667 0 0 1 74.666667-74.666667h213.333333a10.666667 10.666667 0 0 1 10.666667 10.666667z m394.666666-266.666666H608a53.393333 53.393333 0 0 0-53.333333 53.333333v213.333333c0 64.666667 52.666667 117.333333 117.333333 117.333334h149.333333c64.666667 0 117.333333-52.666667 117.333334-117.333334v-149.333333c0-64.666667-52.633333-117.333333-117.333334-117.333333z m74.666667 266.666666a74.746667 74.746667 0 0 1-74.666667 74.666667h-149.333333a74.746667 74.746667 0 0 1-74.666667-74.666667V608a10.666667 10.666667 0 0 1 10.666667-10.666667h213.333333a74.746667 74.746667 0 0 1 74.666667 74.666667z m-187.046667-359.54a53.4 53.4 0 0 0 75.426667 0l146.746667-146.746666a53.4 53.4 0 0 0 0-75.426667l-146.746667-146.746667a53.4 53.4 0 0 0-75.426667 0L562.206667 239.62a53.4 53.4 0 0 0 0 75.426667z m-116.573333-192l146.746667-146.746666a10.666667 10.666667 0 0 1 15.08 0l146.746666 146.746666a10.666667 10.666667 0 0 1 0 15.08l-146.746666 146.746667a10.666667 10.666667 0 0 1-15.08 0L592.38 284.873333a10.666667 10.666667 0 0 1 0-15.08z" fill="#5C5C66" /></svg>